<svg xmlns="http://www.w3.org/2000/svg" style="display: none;">
  <!-- Settings Icon -->
  <symbol id="settings" viewBox="0 0 24 24">
    <path d="M19.14,12.94c0.04-0.3,0.06-0.61,0.06-0.94c0-0.32-0.02-0.64-0.07-0.94l2.03-1.58c0.18-0.14,0.23-0.41,0.12-0.61 l-1.92-3.32c-0.12-0.22-0.37-0.29-0.59-0.22l-2.39,0.96c-0.5-0.38-1.03-0.7-1.62-0.94L14.4,2.81c-0.04-0.24-0.24-0.41-0.48-0.41 h-3.84c-0.24,0-0.43,0.17-0.47,0.41L9.25,5.35C8.66,5.59,8.12,5.92,7.63,6.29L5.24,5.33c-0.22-0.08-0.47,0-0.59,0.22L2.74,8.87 C2.62,9.08,2.66,9.34,2.86,9.48l2.03,1.58C4.84,11.36,4.8,11.69,4.8,12s0.02,0.64,0.07,0.94l-2.03,1.58 c-0.18,0.14-0.23,0.41-0.12,0.61l1.92,3.32c0.12,0.22,0.37,0.29,0.59,0.22l2.39-0.96c0.5,0.38,1.03,0.7,1.62,0.94l0.36,2.54 c0.05,0.24,0.24,0.41,0.48,0.41h3.84c0.24,0,0.44-0.17,0.47-0.41l0.36-2.54c0.59-0.24,1.13-0.56,1.62-0.94l2.39,0.96 c0.22,0.08,0.47,0,0.59-0.22l1.92-3.32c0.12-0.22,0.07-0.47-0.12-0.61L19.14,12.94z M12,15.6c-1.98,0-3.6-1.62-3.6-3.6 s1.62-3.6,3.6-3.6s3.6,1.62,3.6,3.6S13.98,15.6,12,15.6z"/>
  </symbol>

  <!-- Bar Chart Icon -->
  <symbol id="bar-chart" viewBox="0 0 24 24">
    <path d="M5,9.2h3V19H5V9.2z M10.6,5h2.8v14h-2.8V5z M16.2,13H19v6h-2.8V13z"/>
  </symbol>

  <!-- Line Chart Icon -->
  <symbol id="line-chart" viewBox="0 0 24 24">
    <path d="M3.5,18.49l6-6.01l4,4L22,6.92l-1.41-1.41l-7.09,7.97l-4-4L2,16.99L3.5,18.49z"/>
  </symbol>

  <!-- Pie Chart Icon -->
  <symbol id="pie-chart" viewBox="0 0 24 24">
    <path d="M11,2v20c-5.07-0.5-9-4.79-9-10s3.93-9.5,9-10z"/>
    <path d="M13.03,2v8.99H22C21.5,6.4,17.52,2.5,13.03,2z"/>
    <path d="M13.03,12.99V22c4.49-0.5,8.47-4.4,8.97-9.01H13.03z"/>
  </symbol>

  <!-- Location Icon -->
  <symbol id="location" viewBox="0 0 24 24">
    <path d="M12,2C8.13,2,5,5.13,5,9c0,5.25,7,13,7,13s7-7.75,7-13C19,5.13,15.87,2,12,2z M12,11.5c-1.38,0-2.5-1.12-2.5-2.5 s1.12-2.5,2.5-2.5s2.5,1.12,2.5,2.5S13.38,11.5,12,11.5z"/>
  </symbol>

  <!-- Refresh Icon -->
  <symbol id="refresh" viewBox="0 0 24 24">
    <path d="M17.65,6.35C16.2,4.9,14.21,4,12,4c-4.42,0-7.99,3.58-7.99,8s3.57,8,7.99,8c3.73,0,6.84-2.55,7.73-6h-2.08 c-0.82,2.33-3.04,4-5.65,4c-3.31,0-6-2.69-6-6s2.69-6,6-6c1.66,0,3.14,0.69,4.22,1.78L13,11h7V4L17.65,6.35z"/>
  </symbol>

  <!-- User Icon -->
  <symbol id="user" viewBox="0 0 24 24">
    <path d="M12,12c2.21,0,4-1.79,4-4s-1.79-4-4-4s-4,1.79-4,4S9.79,12,12,12z"/>
    <path d="M12,14c-2.67,0-8,1.34-8,4v2h16v-2C20,15.34,14.67,14,12,14z"/>
  </symbol>

  <!-- Calendar Icon -->
  <symbol id="calendar" viewBox="0 0 24 24">
    <path d="M19,3h-1V1h-2v2H8V1H6v2H5C3.89,3,3,3.9,3,5v14c0,1.1,0.9,2,2,2h14c1.1,0,2-0.9,2-2V5C21,3.9,20.1,3,19,3z M19,19H5V8h14 V19z M19,6H5V5h14V6z"/>
    <rect fill="none" height="11" width="14" x="5" y="8"/>
  </symbol>
</svg>
